<svg width="19" height="20" viewBox="0 0 19 20" fill="none" xmlns="http://www.w3.org/2000/svg">
<path fill-rule="evenodd" clip-rule="evenodd" d="M16.9985 18H4.99854V17H5.99854V15H4.99854V13H5.99854V11H4.99854V9H5.99854V7H4.99854V5H5.99854V3H4.99854V2H16.9985V18ZM17.9985 0H3.99854C3.44654 0 2.99854 0.448 2.99854 1V3H0.998535V5H2.99854V7H0.998535V9H2.99854V11H0.998535V13H2.99854V15H0.998535V17H2.99854V19C2.99854 19.552 3.44654 20 3.99854 20H17.9985C18.5505 20 18.9985 19.552 18.9985 19V1C18.9985 0.448 18.5505 0 17.9985 0Z" fill="#F6F6F6"/>
<path fill-rule="evenodd" clip-rule="evenodd" d="M12.9985 6C13.5505 6 13.9985 6.447 13.9985 7C13.9985 7.552 13.5505 8 12.9985 8C12.4465 8 11.9985 7.552 11.9985 7C11.9985 6.447 12.4465 6 12.9985 6ZM10.8905 12.694L9.29154 14.293L10.7055 15.707L11.9985 14.414L13.2915 15.707L14.7055 14.293L13.1065 12.694C14.2345 12.059 14.9985 10.471 14.9985 8.5C14.9985 5.935 13.7085 4 11.9985 4C10.2885 4 8.99854 5.935 8.99854 8.5C8.99854 10.471 9.76254 12.059 10.8905 12.694Z" fill="#F6F6F6"/>
</svg>
